<?xml version="1.0" encoding="UTF-8"?>
<svg xmlns="http://www.w3.org/2000/svg" xmlns:xlink="http://www.w3.org/1999/xlink" width="1850px" height="1850px" viewBox="0 0 1850 1850" version="1.1">
<g id="surface1">
<path style=" stroke:none;fill-rule:nonzero;fill:rgb(76.078431%,65.098039%,8.235294%);fill-opacity:1;" d="M 151.699219 822.632812 C 143.066406 831.265625 135.667969 841.75 135.667969 846.066406 C 135.667969 859.632812 153.550781 881.214844 173.285156 891.082031 C 207.816406 909.582031 218.300781 944.117188 190.550781 952.75 C 167.734375 960.148438 147.382812 944.734375 144.917969 917.601562 C 144.917969 915.75 143.066406 911.433594 140.601562 908.964844 C 137.515625 906.5 135.667969 916.367188 135.667969 930.550781 C 135.667969 944.734375 138.132812 955.214844 141.214844 953.367188 C 143.683594 951.515625 154.167969 953.367188 164.648438 957.066406 C 199.183594 970.015625 234.332031 950.898438 234.332031 918.832031 C 234.332031 904.035156 228.167969 896.015625 200.417969 875.667969 C 165.882812 850.382812 158.484375 834.351562 175.75 820.167969 C 189.933594 808.449219 205.964844 815.234375 217.066406 838.667969 L 228.167969 860.25 L 228.167969 838.050781 C 228.167969 825.101562 225.082031 815.851562 220.765625 815.234375 C 216.449219 814.617188 202.265625 812.148438 189.933594 810.300781 C 170.816406 807.214844 164.648438 809.066406 151.699219 822.632812 Z M 151.699219 822.632812 "/>
<path style=" stroke:none;fill-rule:nonzero;fill:rgb(76.078431%,65.098039%,8.235294%);fill-opacity:1;" d="M 429.199219 820.785156 C 353.964844 879.984375 416.25 995.917969 499.5 952.75 C 546.984375 928.082031 550.066406 847.917969 504.433594 820.167969 C 477.917969 804.132812 450.167969 804.75 429.199219 820.785156 Z M 492.714844 830.035156 C 511.214844 853.464844 511.214844 916.367188 492.714844 939.800781 C 474.214844 963.234375 450.785156 959.535156 436.601562 931.167969 C 403.300781 865.183594 452.015625 778.234375 492.714844 830.035156 Z M 492.714844 830.035156 "/>
<path style=" stroke:none;fill-rule:nonzero;fill:rgb(76.078431%,65.098039%,8.235294%);fill-opacity:1;" d="M 1214.832031 812.148438 C 1193.25 820.167969 1172.285156 847.300781 1168.582031 872.582031 C 1160.566406 922.535156 1196.332031 966.933594 1238.265625 960.148438 L 1254.917969 957.683594 L 1238.265625 956.449219 C 1213.601562 955.214844 1200.648438 931.785156 1200.035156 888 C 1199.417969 830.035156 1231.484375 799.199219 1267.867188 822.632812 C 1275.882812 828.183594 1282.667969 838.667969 1282.667969 846.683594 C 1283.285156 858.398438 1283.898438 859.015625 1288.832031 849.765625 C 1298.082031 834.964844 1290.683594 823.25 1267.867188 815.234375 C 1246.898438 807.214844 1230.25 806.601562 1214.832031 812.148438 Z M 1214.832031 812.148438 "/>
<path style=" stroke:none;fill-rule:nonzero;fill:rgb(76.078431%,65.098039%,8.235294%);fill-opacity:1;" d="M 253.449219 839.898438 L 254.066406 866.417969 L 260.851562 846.066406 C 265.167969 834.964844 272.566406 823.25 277.5 820.167969 C 284.285156 815.851562 282.433594 814 270.101562 814 C 254.066406 814 252.832031 815.851562 253.449219 839.898438 Z M 253.449219 839.898438 "/>
<path style=" stroke:none;fill-rule:nonzero;fill:rgb(76.078431%,65.098039%,8.235294%);fill-opacity:1;" d="M 300.933594 878.132812 C 302.785156 935.484375 301.550781 942.882812 291.066406 950.285156 C 280.582031 958.300781 283.050781 958.917969 313.882812 958.917969 C 347.183594 958.917969 347.800781 958.300781 337.316406 947.816406 C 327.449219 937.949219 326.214844 928.082031 328.066406 875.050781 L 329.917969 814 L 299.082031 814 Z M 300.933594 878.132812 "/>
<path style=" stroke:none;fill-rule:nonzero;fill:rgb(76.078431%,65.098039%,8.235294%);fill-opacity:1;" d="M 353.351562 821.398438 C 358.898438 825.714844 366.300781 836.199219 369.382812 844.832031 C 374.933594 859.015625 375.550781 858.398438 375.550781 836.816406 C 376.167969 815.851562 374.933594 814 359.515625 814 C 344.714844 814 344.101562 815.234375 353.351562 821.398438 Z M 353.351562 821.398438 "/>
<path style=" stroke:none;fill-rule:nonzero;fill:rgb(76.078431%,65.098039%,8.235294%);fill-opacity:1;" d="M 566.714844 822.632812 C 571.648438 828.800781 573.5 852.234375 572.265625 893.550781 L 570.417969 955.832031 L 587.066406 955.832031 C 595.699219 955.832031 608.648438 957.683594 614.816406 959.535156 C 625.300781 962.617188 625.300781 962.617188 614.199219 953.367188 C 604.332031 945.351562 603.101562 935.484375 603.101562 884.917969 C 603.714844 852.851562 605.566406 823.25 607.417969 820.167969 C 609.882812 816.464844 600.632812 814 585.214844 814 C 563.632812 814 560.550781 815.234375 566.714844 822.632812 Z M 566.714844 822.632812 "/>
<path style=" stroke:none;fill-rule:nonzero;fill:rgb(76.078431%,65.098039%,8.235294%);fill-opacity:1;" d="M 637.632812 827.566406 C 651.816406 847.300781 649.964844 867.648438 632.082031 884.917969 C 614.816406 902.800781 620.984375 904.648438 648.117188 891.082031 C 680.800781 873.816406 683.882812 836.199219 653.667969 820.167969 C 633.933594 809.683594 627.148438 812.765625 637.632812 827.566406 Z M 637.632812 827.566406 "/>
<path style=" stroke:none;fill-rule:nonzero;fill:rgb(76.078431%,65.098039%,8.235294%);fill-opacity:1;" d="M 749.25 820.167969 C 755.417969 830.035156 753.566406 944.117188 746.785156 952.132812 C 742.464844 957.066406 746.785156 958.300781 763.433594 957.066406 L 786.25 954.601562 L 786.25 814 L 765.898438 814 C 754.183594 814 746.785156 816.464844 749.25 820.167969 Z M 749.25 820.167969 "/>
<path style=" stroke:none;fill-rule:nonzero;fill:rgb(76.078431%,65.098039%,8.235294%);fill-opacity:1;" d="M 812.765625 821.398438 C 822.015625 830.648438 822.632812 854.082031 814 869.5 C 809.066406 878.75 810.300781 884.300781 820.167969 894.167969 C 835.582031 909.582031 836.199219 927.464844 820.167969 943.5 C 807.832031 955.832031 807.832031 955.832031 819.550781 955.832031 C 826.332031 955.832031 839.898438 949.050781 849.148438 941.035156 C 865.800781 926.234375 865.800781 925 857.167969 908.351562 C 851.617188 899.101562 841.132812 890.464844 833.734375 889.234375 C 815.851562 886.765625 816.464844 879.367188 835.582031 867.035156 C 854.699219 854.699219 855.316406 836.199219 837.433594 823.867188 C 820.167969 811.535156 801.667969 810.300781 812.765625 821.398438 Z M 812.765625 821.398438 "/>
<path style=" stroke:none;fill-rule:nonzero;fill:rgb(76.078431%,65.098039%,8.235294%);fill-opacity:1;" d="M 888.617188 870.734375 C 893.550781 937.949219 896.015625 945.964844 916.367188 955.214844 C 940.417969 966.316406 961.382812 963.234375 977.417969 946.582031 C 991.601562 933.015625 992.832031 926.851562 992.832031 879.984375 C 992.832031 848.535156 995.917969 825.714844 1000.234375 821.398438 C 1005.785156 815.851562 1003.316406 814 989.75 814.617188 C 979.265625 814.617188 974.949219 816.464844 979.265625 818.316406 C 984.199219 820.167969 986.667969 838.050781 986.667969 876.285156 C 986.667969 923.148438 984.816406 933.015625 974.332031 943.5 C 967.550781 950.285156 957.683594 955.832031 952.75 955.832031 C 947.816406 955.832031 937.949219 950.285156 931.167969 943.5 C 920.683594 933.015625 918.832031 923.148438 918.832031 879.984375 C 918.832031 848.535156 921.917969 825.714844 926.234375 821.398438 C 931.785156 815.851562 928.082031 814 908.964844 814 L 884.917969 814 Z M 888.617188 870.734375 "/>
<path style=" stroke:none;fill-rule:nonzero;fill:rgb(76.078431%,65.098039%,8.235294%);fill-opacity:1;" d="M 1032.917969 884.917969 L 1032.917969 955.832031 L 1069.917969 955.832031 L 1069.917969 814 L 1032.917969 814 Z M 1032.917969 884.917969 "/>
<path style=" stroke:none;fill-rule:nonzero;fill:rgb(76.078431%,65.098039%,8.235294%);fill-opacity:1;" d="M 1099.515625 825.101562 C 1113.082031 839.898438 1113.082031 860.25 1098.898438 874.433594 C 1089.648438 883.683594 1089.035156 887.382812 1095.816406 900.332031 C 1100.132812 908.964844 1103.832031 921.917969 1103.832031 929.316406 C 1103.832031 945.964844 1119.25 962 1134.667969 962 C 1148.851562 962 1156.25 952.132812 1144.535156 947.816406 C 1140.214844 945.964844 1134.667969 934.867188 1132.199219 922.535156 C 1129.734375 908.964844 1123.566406 899.714844 1116.167969 897.25 C 1103.214844 892.933594 1098.898438 881.832031 1110 881.832031 C 1119.25 881.832031 1140.832031 858.398438 1140.832031 847.917969 C 1140.832031 834.351562 1118.015625 814 1102.601562 814 C 1090.265625 814 1090.265625 814.617188 1099.515625 825.101562 Z M 1099.515625 825.101562 "/>
<path style=" stroke:none;fill-rule:nonzero;fill:rgb(76.078431%,65.098039%,8.235294%);fill-opacity:1;" d="M 1324.601562 821.398438 C 1329.535156 826.332031 1332 849.148438 1332 882.449219 C 1332 933.632812 1332.617188 937.332031 1348.035156 949.050781 C 1370.234375 966.316406 1396.75 965.699219 1415.25 946.582031 C 1429.433594 933.015625 1430.667969 926.851562 1430.667969 879.984375 C 1430.667969 848.535156 1433.75 825.714844 1438.066406 821.398438 C 1443.617188 815.851562 1441.765625 814 1427.582031 814 C 1413.398438 814 1411.550781 815.851562 1417.101562 821.398438 C 1421.417969 825.714844 1424.5 848.535156 1424.5 879.984375 C 1424.5 923.148438 1422.648438 933.015625 1412.167969 943.5 C 1405.382812 950.285156 1395.515625 955.832031 1390.582031 955.832031 C 1385.648438 955.832031 1375.785156 950.285156 1369 943.5 C 1358.515625 933.015625 1356.667969 923.148438 1356.667969 879.984375 C 1356.667969 848.535156 1359.75 825.714844 1364.066406 821.398438 C 1369.617188 815.851562 1365.300781 814 1344.332031 814 C 1323.367188 814 1319.050781 815.851562 1324.601562 821.398438 Z M 1324.601562 821.398438 "/>
<path style=" stroke:none;fill-rule:nonzero;fill:rgb(76.078431%,65.098039%,8.235294%);fill-opacity:1;" d="M 1472.601562 879.367188 C 1473.832031 916.367188 1471.984375 947.199219 1468.285156 951.515625 C 1463.964844 957.066406 1467.667969 958.917969 1484.933594 957.066406 L 1507.75 954.601562 L 1507.75 814 L 1470.75 814 Z M 1472.601562 879.367188 "/>
<path style=" stroke:none;fill-rule:nonzero;fill:rgb(76.078431%,65.098039%,8.235294%);fill-opacity:1;" d="M 1541.667969 822.015625 C 1549.683594 826.332031 1558.316406 836.199219 1560.785156 844.832031 C 1564.484375 857.785156 1565.101562 857.167969 1565.714844 836.816406 C 1566.332031 815.234375 1565.714844 814 1546.601562 814 C 1526.25 814 1526.25 814 1541.667969 822.015625 Z M 1541.667969 822.015625 "/>
<path style=" stroke:none;fill-rule:nonzero;fill:rgb(76.078431%,65.098039%,8.235294%);fill-opacity:1;" d="M 1602.101562 821.398438 C 1611.964844 831.265625 1611.964844 938.566406 1602.101562 948.433594 C 1596.550781 953.984375 1599.632812 955.832031 1616.285156 955.832031 L 1637.25 955.832031 L 1637.25 814 L 1616.285156 814 C 1599.632812 814 1596.550781 815.851562 1602.101562 821.398438 Z M 1602.101562 821.398438 "/>
<path style=" stroke:none;fill-rule:nonzero;fill:rgb(76.078431%,65.098039%,8.235294%);fill-opacity:1;" d="M 1667.464844 823.867188 C 1681.648438 837.433594 1679.800781 867.035156 1665 877.515625 C 1654.515625 884.917969 1653.898438 887.382812 1661.300781 893.550781 C 1665.617188 897.25 1671.167969 911.433594 1673.632812 924.382812 C 1677.949219 953.984375 1690.285156 965.082031 1712.484375 958.917969 C 1724.199219 955.832031 1726.667969 953.367188 1720.5 950.898438 C 1708.167969 946.582031 1702 937.332031 1702 920.683594 C 1702 913.285156 1694.601562 901.566406 1685.351562 894.785156 C 1673.632812 886.148438 1671.167969 882.449219 1677.949219 881.832031 C 1691.515625 881.832031 1708.167969 862.101562 1708.167969 846.066406 C 1708.167969 831.882812 1686.582031 814 1669.316406 814 C 1658.832031 814 1658.832031 814.617188 1667.464844 823.867188 Z M 1667.464844 823.867188 "/>
<path style=" stroke:none;fill-rule:nonzero;fill:rgb(76.078431%,65.098039%,8.235294%);fill-opacity:1;" d="M 1527.484375 872.582031 C 1521.316406 881.214844 1518.851562 888 1521.933594 888 C 1525.015625 888 1530.566406 894.167969 1534.265625 901.566406 C 1539.816406 913.898438 1541.050781 912.050781 1541.050781 886.148438 C 1541.667969 870.117188 1541.050781 857.167969 1540.433594 857.167969 C 1539.199219 857.167969 1533.648438 864.566406 1527.484375 872.582031 Z M 1527.484375 872.582031 "/>
<path style=" stroke:none;fill-rule:nonzero;fill:rgb(76.078431%,65.098039%,8.235294%);fill-opacity:1;" d="M 1246.898438 898.484375 C 1259.851562 901.566406 1267.25 925 1261.082031 943.5 C 1257.382812 955.214844 1258 955.832031 1269.101562 950.285156 C 1277.117188 945.964844 1283.285156 945.964844 1288.832031 951.515625 C 1295 957.683594 1295.617188 955.214844 1292.535156 938.566406 C 1290.683594 926.851562 1291.917969 912.667969 1295 905.882812 C 1301.167969 894.785156 1299.316406 894.167969 1269.101562 894.785156 C 1251.214844 895.398438 1241.351562 896.632812 1246.898438 898.484375 Z M 1246.898438 898.484375 "/>
<path style=" stroke:none;fill-rule:nonzero;fill:rgb(76.078431%,65.098039%,8.235294%);fill-opacity:1;" d="M 1560.167969 930.550781 C 1556.464844 941.035156 1548.449219 950.285156 1542.898438 951.515625 C 1536.734375 953.367188 1541.667969 954.601562 1552.765625 955.214844 C 1571.265625 955.832031 1572.5 954.601562 1572.5 934.25 C 1572.5 907.734375 1570.035156 907.117188 1560.167969 930.550781 Z M 1560.167969 930.550781 "/>
</g>
</svg>
